<svg width="40" height="40" viewBox="0 0 40 40" fill="none" xmlns="http://www.w3.org/2000/svg">
<path d="M16.625 1H4.125C3.2962 1 2.50134 1.32924 1.91529 1.91529C1.32924 2.50134 1 3.2962 1 4.125V27.0417C1 27.8705 1.32924 28.6653 1.91529 29.2514C2.50134 29.8374 3.2962 30.1667 4.125 30.1667H35.375C36.2038 30.1667 36.9987 29.8374 37.5847 29.2514C38.1708 28.6653 38.5 27.8705 38.5 27.0417V16.625M19.75 30.1667V38.5" stroke="#111827" stroke-width="2" stroke-linecap="round" stroke-linejoin="round"/>
<path d="M28.0833 1L23.9167 5.16667L28.0833 9.33333M34.3333 1L38.5 5.16667L34.3333 9.33333M9.33333 38.5H30.1667" stroke="#111827" stroke-width="2" stroke-linecap="round" stroke-linejoin="round"/>
</svg>
