<svg width="38" height="38" viewBox="0 0 38 38" fill="none" xmlns="http://www.w3.org/2000/svg">
<path d="M30.2083 18.75C29.3795 18.75 28.5847 18.4208 27.9986 17.8347C27.4126 17.2487 27.0833 16.4538 27.0833 15.625C27.0833 14.7962 27.4126 14.0013 27.9986 13.4153C28.5847 12.8292 29.3795 12.5 30.2083 12.5C31.0371 12.5 31.832 12.8292 32.418 13.4153C33.0041 14.0013 33.3333 14.7962 33.3333 15.625C33.3333 16.4538 33.0041 17.2487 32.418 17.8347C31.832 18.4208 31.0371 18.75 30.2083 18.75ZM23.9583 10.4167C23.1295 10.4167 22.3347 10.0874 21.7486 9.50138C21.1626 8.91532 20.8333 8.12047 20.8333 7.29167C20.8333 6.46286 21.1626 5.66801 21.7486 5.08196C22.3347 4.49591 23.1295 4.16667 23.9583 4.16667C24.7871 4.16667 25.582 4.49591 26.168 5.08196C26.7541 5.66801 27.0833 6.46286 27.0833 7.29167C27.0833 8.12047 26.7541 8.91532 26.168 9.50138C25.582 10.0874 24.7871 10.4167 23.9583 10.4167ZM13.5417 10.4167C12.7129 10.4167 11.918 10.0874 11.332 9.50138C10.7459 8.91532 10.4167 8.12047 10.4167 7.29167C10.4167 6.46286 10.7459 5.66801 11.332 5.08196C11.918 4.49591 12.7129 4.16667 13.5417 4.16667C14.3705 4.16667 15.1653 4.49591 15.7514 5.08196C16.3374 5.66801 16.6667 6.46286 16.6667 7.29167C16.6667 8.12047 16.3374 8.91532 15.7514 9.50138C15.1653 10.0874 14.3705 10.4167 13.5417 10.4167ZM7.29167 18.75C6.46286 18.75 5.66801 18.4208 5.08196 17.8347C4.49591 17.2487 4.16667 16.4538 4.16667 15.625C4.16667 14.7962 4.49591 14.0013 5.08196 13.4153C5.66801 12.8292 6.46286 12.5 7.29167 12.5C8.12047 12.5 8.91532 12.8292 9.50138 13.4153C10.0874 14.0013 10.4167 14.7962 10.4167 15.625C10.4167 16.4538 10.0874 17.2487 9.50138 17.8347C8.91532 18.4208 8.12047 18.75 7.29167 18.75ZM18.75 0C13.7772 0 9.00805 1.97544 5.49175 5.49175C1.97544 9.00805 0 13.7772 0 18.75C0 23.7228 1.97544 28.4919 5.49175 32.0083C9.00805 35.5246 13.7772 37.5 18.75 37.5C19.5788 37.5 20.3737 37.1708 20.9597 36.5847C21.5458 35.9987 21.875 35.2038 21.875 34.375C21.875 33.5625 21.5625 32.8333 21.0625 32.2917C20.5833 31.7292 20.2708 31 20.2708 30.2083C20.2708 29.3795 20.6001 28.5847 21.1861 27.9986C21.7722 27.4126 22.567 27.0833 23.3958 27.0833H27.0833C29.846 27.0833 32.4955 25.9859 34.449 24.0324C36.4025 22.0789 37.5 19.4293 37.5 16.6667C37.5 7.45833 29.1042 0 18.75 0Z" fill="#111827"/>
</svg>
