<svg width="45" height="45" viewBox="0 0 45 45" fill="none" xmlns="http://www.w3.org/2000/svg">
<path fill-rule="evenodd" clip-rule="evenodd" d="M38.6132 0.47055C38.3118 0.169257 37.9031 0 37.4769 0C37.0508 0 36.6421 0.169257 36.3407 0.47055L21.2336 15.6098C20.9874 15.8569 20.8284 16.1773 20.7803 16.5227L19.8161 23.3691C19.7816 23.6148 19.8044 23.8652 19.8829 24.1006C19.9613 24.3359 20.0932 24.55 20.2682 24.7259C20.4431 24.9018 20.6565 25.0348 20.8914 25.1145C21.1264 25.1942 21.3766 25.2184 21.6225 25.1852L28.4689 24.253C28.8166 24.2064 29.1394 24.0472 29.3882 23.7998L44.5275 8.66055C44.6772 8.51126 44.7959 8.33391 44.8769 8.13866C44.9579 7.94341 44.9996 7.73409 44.9996 7.52269C44.9996 7.3113 44.9579 7.10198 44.8769 6.90673C44.7959 6.71147 44.6772 6.53412 44.5275 6.38484L38.6132 0.47055ZM4.10141 5.22448C4.10141 4.55912 4.64141 4.01912 5.30677 4.01912H27.405C27.9378 4.01912 28.4488 3.80747 28.8255 3.43072C29.2023 3.05397 29.4139 2.54299 29.4139 2.01019C29.4139 1.47739 29.2023 0.966413 28.8255 0.589665C28.4488 0.212918 27.9378 0.00126394 27.405 0.00126394H5.30677C2.42356 0.00126394 0.0835571 2.34126 0.0835571 5.22448V39.778C0.0835571 42.6645 2.42356 45.0013 5.30677 45.0013H34.2353C37.1218 45.0013 39.4586 42.6645 39.4586 39.778V24.5102C39.4586 23.9774 39.2469 23.4664 38.8702 23.0897C38.4934 22.7129 37.9824 22.5013 37.4496 22.5013C36.9168 22.5013 36.4058 22.7129 36.0291 23.0897C35.6524 23.4664 35.4407 23.9774 35.4407 24.5102V33.777H4.10141V5.22448ZM9.72641 9.64412C9.72641 8.53519 10.6264 7.63519 11.7353 7.63519H18.1639C18.6967 7.63519 19.2077 7.84685 19.5844 8.22359C19.9612 8.60034 20.1728 9.11132 20.1728 9.64412C20.1728 10.1769 19.9612 10.6879 19.5844 11.0646C19.2077 11.4414 18.6967 11.653 18.1639 11.653H11.7353C11.2025 11.653 10.6916 11.4414 10.3148 11.0646C9.93807 10.6879 9.72641 10.1769 9.72641 9.64412ZM11.7353 15.6709C11.2025 15.6709 10.6916 15.8826 10.3148 16.2593C9.93807 16.6361 9.72641 17.147 9.72641 17.6798C9.72641 18.2126 9.93807 18.7236 10.3148 19.1004C10.6916 19.4771 11.2025 19.6888 11.7353 19.6888H14.9496C15.4824 19.6888 15.9934 19.4771 16.3702 19.1004C16.7469 18.7236 16.9586 18.2126 16.9586 17.6798C16.9586 17.147 16.7469 16.6361 16.3702 16.2593C15.9934 15.8826 15.4824 15.6709 14.9496 15.6709H11.7353Z" fill="#111827"/>
</svg>
