<svg width="26" height="29" viewBox="0 0 26 29" fill="none" xmlns="http://www.w3.org/2000/svg">
<g filter="url(#filter0_d_496_334)">
<path d="M19.5929 4H6.00086C5.80861 3.99984 5.6204 4.05509 5.45875 4.15914C5.2971 4.26319 5.16886 4.41164 5.08941 4.58669C5.00995 4.76175 4.98264 4.956 5.01074 5.14618C5.03884 5.33636 5.12117 5.51441 5.24786 5.659L10.5499 11.717C10.7093 11.8995 10.7971 12.1337 10.7969 12.376V17.25C10.7969 17.3276 10.8149 17.4042 10.8496 17.4736C10.8844 17.543 10.9348 17.6034 10.9969 17.65L13.9969 19.9C14.0711 19.9557 14.1595 19.9896 14.252 19.998C14.3444 20.0063 14.4374 19.9887 14.5205 19.9472C14.6035 19.9057 14.6734 19.8419 14.7222 19.7629C14.771 19.6839 14.7969 19.5929 14.7969 19.5V12.376C14.7966 12.1337 14.8844 11.8995 15.0439 11.717L20.3459 5.658C20.9119 5.012 20.4519 4 19.5929 4Z" stroke="#111827" stroke-width="2" stroke-linecap="round" shape-rendering="crispEdges"/>
</g>
<defs>
<filter id="filter0_d_496_334" x="0" y="3" width="25.5974" height="26" filterUnits="userSpaceOnUse" color-interpolation-filters="sRGB">
<feFlood flood-opacity="0" result="BackgroundImageFix"/>
<feColorMatrix in="SourceAlpha" type="matrix" values="0 0 0 0 0 0 0 0 0 0 0 0 0 0 0 0 0 0 127 0" result="hardAlpha"/>
<feOffset dy="4"/>
<feGaussianBlur stdDeviation="2"/>
<feComposite in2="hardAlpha" operator="out"/>
<feColorMatrix type="matrix" values="0 0 0 0 0 0 0 0 0 0 0 0 0 0 0 0 0 0 0.25 0"/>
<feBlend mode="normal" in2="BackgroundImageFix" result="effect1_dropShadow_496_334"/>
<feBlend mode="normal" in="SourceGraphic" in2="effect1_dropShadow_496_334" result="shape"/>
</filter>
</defs>
</svg>
